<svg viewBox="0 0 269 36" xmlns="http://www.w3.org/2000/svg" xmlns:xlink="http://www.w3.org/1999/xlink">
<symbol viewBox="0 0 49 36" id="email" xmlns="http://www.w3.org/2000/svg"><path fill-rule="evenodd" clip-rule="evenodd" d="M1.334 2.628C2.564 1.056 4.568 0 6.86 0h35.28c2.292 0 4.295 1.056 5.526 2.628A6.18 6.18 0 0149 6.45v23.1c0 3.485-2.988 6.45-6.86 6.45H6.86C2.988 36 0 33.035 0 29.55V6.45a6.18 6.18 0 011.334-3.822zM7.185 4.5l15.501 15.67c.973.983 2.655.983 3.628 0l15.5-15.67H7.186zM44.1 8.882L29.94 23.197c-2.916 2.948-7.964 2.948-10.88 0L4.9 8.882V29.55c0 1.155.96 1.95 1.96 1.95h35.28c1 0 1.96-.795 1.96-1.95V8.882z"/></symbol>
<symbol viewBox="0 0 36 36" id="github" xmlns="http://www.w3.org/2000/svg"><path d="M12.358 36c.557-.246.946-.813.946-1.474V30.19c0-.158.013-.323.032-.49a.407.407 0 01-.032.008h-2.817c-1.174 0-2.191-.481-2.66-1.445-.549-1.044-.784-2.81-2.192-3.774-.235-.16-.078-.401.391-.401.47.08 1.487.722 2.113 1.606.704.883 1.409 1.605 2.661 1.605 1.946 0 2.99-.1 3.617-.445.731-1.115 1.743-1.963 2.8-1.963v-.02c-4.435-.146-7.27-1.66-8.589-3.995-2.868.034-5.365.325-6.79.568a17.72 17.72 0 01-.119-.793c1.407-.237 3.79-.52 6.531-.573a6.676 6.676 0 01-.227-.682 49.302 49.302 0 00-6.408.078c-.015-.266-.036-.532-.04-.802a50.014 50.014 0 016.275-.09 8.092 8.092 0 01-.101-1.238c0-1.365.47-2.81 1.33-4.015-.391-1.365-.94-4.255.157-5.299 2.113 0 3.6 1.044 4.304 1.686A11.343 11.343 0 0118 8.832c1.643 0 3.13.321 4.383.883.704-.642 2.19-1.686 4.304-1.686 1.174 1.124.548 4.015.156 5.3.861 1.204 1.33 2.569 1.253 4.014 0 .389-.036.764-.086 1.131a50.393 50.393 0 016.42.082c-.002.271-.026.535-.04.803a49.401 49.401 0 00-6.542-.072c-.07.27-.154.532-.254.787 2.775.037 5.216.312 6.69.553-.034.267-.073.53-.118.793-1.497-.246-4.047-.534-6.95-.548-1.302 2.31-4.084 3.818-8.433 3.994v.025c2.034 0 3.913 3.131 3.913 5.299v4.336c0 .66.39 1.228.946 1.474C30.812 33.566 36 26.628 36 18.467 36 8.285 27.926 0 18 0S0 8.285 0 18.467C0 26.628 5.189 33.566 12.358 36z"/></symbol>
<symbol viewBox="0 0 36 36" id="instagram" xmlns="http://www.w3.org/2000/svg"><path fill-rule="evenodd" clip-rule="evenodd" d="M0 7.2A7.2 7.2 0 017.2 0h21.6A7.2 7.2 0 0136 7.2v21.6a7.2 7.2 0 01-7.2 7.2H7.2A7.2 7.2 0 010 28.8V7.2zm7.2-3.6a3.6 3.6 0 00-3.6 3.6v21.6a3.6 3.6 0 003.6 3.6h21.6a3.6 3.6 0 003.6-3.6V7.2a3.6 3.6 0 00-3.6-3.6H7.2zm10.8 9a5.4 5.4 0 100 10.8 5.4 5.4 0 000-10.8zM9 18a9 9 0 1118 0 9 9 0 01-18 0zm18.9-7.2a2.7 2.7 0 100-5.4 2.7 2.7 0 000 5.4z"/></symbol>
<symbol viewBox="0 0 269 31" id="logo" xmlns="http://www.w3.org/2000/svg"><path d="M5.785 14.644l11.69 4.802v4.085L.503 16.045v-2.443l16.97-8.477v4.102l-11.69 5.417zM28.36 27l9.314-24.985h4.717L33.077 27H28.36zm41.785-10.955l-16.97 7.486v-4.085l11.69-4.802-11.69-5.417V5.125l16.97 8.477v2.443zm40.076-1.538c0 1.071-.126 2.12-.376 3.145a9.327 9.327 0 01-1.128 2.785c-.524.832-1.162 1.499-1.914 2-.741.501-1.624.752-2.649.752-1.071 0-1.914-.308-2.529-.923-.616-.626-.997-1.333-1.146-2.119h-.17c-.422.855-1.043 1.578-1.863 2.17-.81.581-1.834.872-3.076.872-1.79 0-3.162-.593-4.119-1.777-.957-1.197-1.436-2.775-1.436-4.734 0-1.504.302-2.86.906-4.068a6.805 6.805 0 012.564-2.785c1.116-.684 2.432-1.026 3.947-1.026 1.026 0 2.034.091 3.025.274.992.17 1.766.359 2.325.564l-.342 7.11c-.012.216-.023.398-.034.546v.718c0 1.23.21 2.04.632 2.427.433.387.946.58 1.538.58.718 0 1.327-.301 1.829-.905.501-.604.883-1.39 1.145-2.359.273-.98.41-2.073.41-3.28 0-2.154-.433-3.989-1.299-5.504a8.565 8.565 0 00-3.606-3.452c-1.538-.797-3.276-1.196-5.212-1.196-2.655 0-4.9.547-6.734 1.64a10.607 10.607 0 00-4.17 4.53c-.945 1.925-1.418 4.124-1.418 6.596 0 3.463.911 6.118 2.734 7.964 1.823 1.834 4.45 2.751 7.879 2.751 1.424 0 2.78-.16 4.067-.478a28.8 28.8 0 003.452-1.026v2.376c-1.002.421-2.13.763-3.384 1.025-1.242.274-2.62.41-4.135.41-2.746 0-5.105-.512-7.076-1.538-1.96-1.025-3.457-2.5-4.494-4.426-1.037-1.925-1.555-4.238-1.555-6.939 0-2.176.341-4.192 1.025-6.05.684-1.856 1.663-3.469 2.94-4.836 1.287-1.356 2.842-2.41 4.665-3.161 1.834-.764 3.902-1.145 6.204-1.145 2.426 0 4.585.501 6.477 1.504a11.036 11.036 0 014.46 4.306c1.094 1.869 1.641 4.096 1.641 6.682zm-17.688 2.24c0 1.514.29 2.608.871 3.28.593.661 1.402.992 2.427.992 1.31 0 2.25-.49 2.82-1.47.57-.98.9-2.25.991-3.811l.205-4.375a6.446 6.446 0 00-1.145-.257 9.91 9.91 0 00-1.435-.102c-1.151 0-2.074.279-2.769.837a4.692 4.692 0 00-1.504 2.154 8.255 8.255 0 00-.461 2.751zM118.321 27h-3.076V.408h3.076V27zm7.503-25.789c.467 0 .883.16 1.247.479.365.308.547.797.547 1.47 0 .683-.182 1.185-.547 1.504a1.88 1.88 0 01-1.247.461c-.513 0-.946-.154-1.299-.461-.342-.32-.513-.82-.513-1.504 0-.673.171-1.162.513-1.47.353-.32.786-.479 1.299-.479zm1.521 7.024V27h-3.094V8.235h3.094zm18.149 13.587c0 1.823-.678 3.201-2.034 4.136-1.344.922-3.161 1.384-5.451 1.384-1.31 0-2.438-.103-3.384-.308-.934-.205-1.766-.495-2.495-.871V23.36c.752.376 1.658.723 2.717 1.042 1.06.308 2.136.462 3.23.462 1.561 0 2.689-.25 3.384-.752.706-.502 1.06-1.174 1.06-2.017 0-.478-.126-.9-.376-1.264-.285-.41-.809-.81-1.573-1.197a25.217 25.217 0 00-2.666-1.179 27.159 27.159 0 01-1.692-.7 34.35 34.35 0 01-1.418-.701c-.866-.467-1.532-1.026-2-1.675-.467-.65-.7-1.487-.7-2.512 0-1.595.643-2.82 1.931-3.675 1.299-.866 3.002-1.298 5.11-1.298 1.139 0 2.204.12 3.196.358.991.228 1.919.53 2.785.906l-1.059 2.444c-.787-.33-1.613-.61-2.478-.837a9.97 9.97 0 00-2.666-.36c-1.254 0-2.216.206-2.889.616-.66.41-.991.963-.991 1.658 0 .524.154.968.462 1.333.296.353.797.706 1.503 1.06.718.341 1.675.734 2.872 1.178 1.184.445 2.198.9 3.042 1.368.843.467 1.481 1.037 1.914 1.709.444.66.666 1.492.666 2.495zm11.655-13.894c2.279 0 3.965.501 5.059 1.504 1.105 1.002 1.658 2.597 1.658 4.785V27h-2.239l-.598-2.666h-.137c-.82 1.025-1.686 1.783-2.598 2.273-.911.49-2.147.735-3.708.735-1.698 0-3.11-.444-4.238-1.333-1.117-.9-1.675-2.307-1.675-4.221 0-1.869.735-3.31 2.204-4.324 1.47-1.014 3.732-1.567 6.785-1.658l3.196-.12v-1.11c0-1.561-.342-2.644-1.025-3.247-.673-.616-1.63-.923-2.872-.923-.979 0-1.914.148-2.802.444-.878.285-1.704.615-2.478.991l-.94-2.307c.82-.444 1.788-.82 2.905-1.128a12.69 12.69 0 013.503-.478zm3.675 11.587v-1.692l-2.769.12c-2.335.09-3.953.46-4.853 1.11-.9.65-1.35 1.572-1.35 2.769 0 1.048.319 1.817.957 2.307.649.49 1.475.735 2.478.735 1.56 0 2.871-.439 3.93-1.316 1.071-.877 1.607-2.222 1.607-4.033zm17.585-11.621c.353 0 .724.017 1.111.05a9.41 9.41 0 011.094.155l-.393 2.836a9.791 9.791 0 00-1.009-.17 8.484 8.484 0 00-1.008-.069c-.968 0-1.868.262-2.7.786-.843.525-1.515 1.26-2.017 2.205-.501.946-.752 2.045-.752 3.298V27h-3.076V8.235h2.512l.359 3.435h.137a8.735 8.735 0 012.324-2.649c.969-.751 2.108-1.127 3.418-1.127zm12.1.034c2.278 0 3.965.501 5.058 1.504 1.106 1.002 1.658 2.597 1.658 4.785V27h-2.239l-.598-2.666h-.137c-.82 1.025-1.686 1.783-2.597 2.273-.912.49-2.148.735-3.709.735-1.697 0-3.11-.444-4.238-1.333-1.117-.9-1.675-2.307-1.675-4.221 0-1.869.735-3.31 2.205-4.324 1.47-1.014 3.731-1.567 6.784-1.658l3.196-.12v-1.11c0-1.561-.342-2.644-1.025-3.247-.672-.616-1.629-.923-2.871-.923-.98 0-1.914.148-2.803.444a19.39 19.39 0 00-2.478.991l-.94-2.307c.82-.444 1.789-.82 2.905-1.128a12.698 12.698 0 013.504-.478zm3.674 11.587v-1.692l-2.768.12c-2.336.09-3.954.46-4.854 1.11-.9.65-1.35 1.572-1.35 2.769 0 1.048.319 1.817.957 2.307.649.49 1.475.735 2.478.735 1.561 0 2.871-.439 3.931-1.316 1.071-.877 1.606-2.222 1.606-4.033zm20.679-11.28v2.308l-9.929 14.082h10.185V27h-13.723v-2.034l10.083-14.338h-9.485V8.235h12.869zm17.192 9.775V8.236h3.076V27h-2.529l-.444-2.478h-.137a5.424 5.424 0 01-2.529 2.153 8.874 8.874 0 01-3.435.667c-2.256 0-3.959-.541-5.11-1.624-1.14-1.082-1.709-2.814-1.709-5.195V8.235h3.11v12.083c0 2.985 1.39 4.477 4.17 4.477 2.074 0 3.515-.58 4.324-1.743.809-1.173 1.213-2.854 1.213-5.041zm29.617-10.116c2.13 0 3.72.546 4.768 1.64 1.048 1.094 1.572 2.843 1.572 5.247V27h-3.042V14.918c0-2.963-1.27-4.444-3.811-4.444-1.823 0-3.127.53-3.913 1.59-.775 1.048-1.162 2.574-1.162 4.58V27h-3.06V14.918c0-2.963-1.281-4.444-3.845-4.444-1.891 0-3.201.587-3.93 1.76-.718 1.162-1.077 2.843-1.077 5.042V27h-3.076V8.235h2.478l.461 2.564h.171c.581-.98 1.367-1.71 2.358-2.188a7.293 7.293 0 013.179-.717c2.94 0 4.854 1.048 5.742 3.144h.171c.627-1.07 1.476-1.863 2.547-2.375a7.998 7.998 0 013.469-.77z"/></symbol>
<symbol viewBox="0 0 36 36" id="telegram" xmlns="http://www.w3.org/2000/svg"><path d="M34.885.856A3.082 3.082 0 0033.33.05a2.929 2.929 0 00-1.71.196L2.035 13.03a3.294 3.294 0 00-1.554 1.427 3.81 3.81 0 00-.467 2.167 3.7 3.7 0 00.806 2.042 3.15 3.15 0 001.758 1.104l7 1.54v9.747c0 .698.187 1.38.54 1.96.352.58.853 1.033 1.439 1.3a2.936 2.936 0 001.853.2 3.128 3.128 0 001.642-.967l3.733-4.106 5.86 5.673a3.02 3.02 0 002.109.882c.337 0 .673-.059.994-.173a3.161 3.161 0 001.382-.97 3.632 3.632 0 00.76-1.599l6.03-28.942a3.856 3.856 0 00-.079-1.889 3.557 3.557 0 00-.955-1.571zm-13.78 8.48l-10.05 7.984-5.583-1.228 15.634-6.756zm-7.68 20.019v-5.098l2.465 2.386-2.465 2.712zm12.953 1.803L14.581 19.74 31.57 6.244l-5.19 24.914z"/></symbol>
<symbol viewBox="0 0 36 36" id="whatsapp" xmlns="http://www.w3.org/2000/svg"><path fill-rule="evenodd" clip-rule="evenodd" d="M26.247 21.573c-.448-.223-2.65-1.3-3.06-1.45-.41-.149-.71-.223-1.008.223-.298.446-1.157 1.45-1.418 1.748-.261.297-.523.335-.97.111-.448-.223-1.891-.693-3.602-2.212-1.331-1.182-2.23-2.641-2.492-3.088-.26-.446-.027-.687.197-.91.201-.2.448-.52.672-.78.224-.26.298-.447.447-.744.15-.297.075-.558-.037-.78-.112-.224-1.008-2.418-1.38-3.31-.364-.87-.733-.752-1.008-.766a18.1 18.1 0 00-.859-.015c-.298 0-.784.111-1.194.557-.41.447-1.568 1.525-1.568 3.719s1.605 4.313 1.83 4.61c.223.299 3.157 4.8 7.65 6.731 1.069.46 1.903.734 2.553.94 1.073.338 2.05.29 2.821.176.86-.128 2.65-1.078 3.023-2.12.374-1.04.374-1.933.262-2.12-.112-.185-.41-.297-.859-.52zm-8.172 11.105h-.006a14.93 14.93 0 01-7.583-2.067l-.544-.321-5.638 1.472 1.505-5.471-.354-.561a14.74 14.74 0 01-2.278-7.891C3.18 9.664 9.863 3.013 18.08 3.013c3.98.001 7.72 1.546 10.533 4.348a14.702 14.702 0 014.36 10.49c-.004 8.175-6.687 14.827-14.899 14.827zm12.68-27.446C27.37 1.86 22.87.002 18.075 0 8.195 0 .155 8.002.15 17.838a17.742 17.742 0 002.393 8.918L0 36l9.502-2.48a17.975 17.975 0 008.566 2.17h.007c9.88 0 17.92-8.002 17.925-17.838a17.69 17.69 0 00-5.245-12.62z"/></symbol></svg>