<svg width="49" height="36" viewBox="0 0 49 36" fill="none" xmlns="http://www.w3.org/2000/svg">
<path fill-rule="evenodd" clip-rule="evenodd" d="M1.33361 2.62782C2.56466 1.05577 4.56805 0 6.86 0H42.14C44.432 0 46.4353 1.05577 47.6665 2.62782C48.5083 3.70276 49 5.02875 49 6.45001V29.5499C49 33.0345 46.012 36 42.14 36H6.86C2.98812 36 0 33.0345 0 29.5499V6.45001C0 5.02873 0.491813 3.70276 1.33361 2.62782ZM7.18512 4.5L22.6865 20.1706C23.6587 21.1534 25.3413 21.1534 26.3135 20.1706L41.8149 4.5H7.18512ZM44.1 8.88223L29.9402 23.1966C27.0237 26.1448 21.9763 26.1448 19.0597 23.1966L4.9 8.88223V29.5499C4.9 30.7049 5.86074 31.5 6.86 31.5H42.14C43.1394 31.5 44.1 30.7049 44.1 29.5499V8.88223Z" fill="white"/>
</svg>
