<svg width="36" height="36" viewBox="0 0 36 36" fill="none" xmlns="http://www.w3.org/2000/svg">
<path d="M12.3582 36C12.9146 35.7543 13.3043 35.1866 13.3043 34.5258V30.19C13.3043 30.0318 13.3169 29.8673 13.3364 29.7002C13.3255 29.7035 13.3153 29.7059 13.3043 29.7083C13.3043 29.7083 10.9565 29.7083 10.487 29.7083C9.31304 29.7083 8.29565 29.2265 7.82609 28.263C7.27826 27.2192 7.04348 25.4528 5.63478 24.4893C5.4 24.3287 5.55652 24.0878 6.02609 24.0878C6.49565 24.1681 7.51304 24.8104 8.13913 25.6936C8.84348 26.5769 9.54783 27.2995 10.8 27.2995C12.7463 27.2995 13.7896 27.1991 14.4172 26.8539C15.1482 25.7386 16.1601 24.8907 17.2174 24.8907V24.8706C12.7816 24.7245 9.94774 23.2118 8.62826 20.8761C5.76 20.9098 3.2627 21.2013 1.83757 21.4438C1.79217 21.1812 1.75304 20.917 1.71939 20.6513C3.12574 20.4136 5.50956 20.1318 8.25026 20.078C8.16261 19.8564 8.0867 19.6291 8.02252 19.3963C5.27478 19.2534 2.90348 19.365 1.6153 19.4742C1.59965 19.2076 1.57852 18.9418 1.57539 18.672C2.86591 18.5637 5.17304 18.4553 7.85035 18.5829C7.78852 18.1815 7.74861 17.7712 7.74861 17.344C7.74861 15.979 8.21817 14.5338 9.07904 13.3294C8.68774 11.9644 8.13991 9.07387 9.23556 8.03007C11.3486 8.03007 12.8356 9.07387 13.5399 9.71621C14.8696 9.15336 16.3565 8.83219 18 8.83219C19.6435 8.83219 21.1304 9.15336 22.3826 9.71541C23.087 9.07307 24.5739 8.02926 26.687 8.02926C27.8609 9.15336 27.2348 12.0439 26.8435 13.3286C27.7043 14.533 28.1739 15.8979 28.0957 17.3432C28.0957 17.7318 28.0604 18.1068 28.0096 18.4745C30.7479 18.3364 33.1177 18.4472 34.4301 18.5564C34.4285 18.827 34.4043 19.0912 34.3902 19.3586C33.0824 19.2477 30.6532 19.1337 27.8483 19.2871C27.7787 19.5569 27.6942 19.8194 27.594 20.074C30.3691 20.1109 32.8101 20.3863 34.2837 20.6272C34.2501 20.8937 34.211 21.1579 34.1656 21.4197C32.6692 21.174 30.1187 20.8865 27.2168 20.8721C25.9137 23.1829 23.1316 24.69 18.7826 24.8658V24.8907C20.8174 24.8907 22.6957 28.0221 22.6957 30.19V34.5258C22.6957 35.1866 23.0854 35.7543 23.6418 36C30.8113 33.5655 36 26.6282 36 18.4673C36 8.28459 27.9258 0 18 0C8.07417 0 0 8.28459 0 18.4673C0 26.6282 5.1887 33.5655 12.3582 36Z" fill="white"/>
</svg>
