<svg width="36" height="36" viewBox="0 0 36 36" fill="none" xmlns="http://www.w3.org/2000/svg">
<path fill-rule="evenodd" clip-rule="evenodd" d="M0 7.2C0 3.22355 3.22355 0 7.2 0H28.8C32.7764 0 36 3.22355 36 7.2V28.8C36 32.7764 32.7764 36 28.8 36H7.2C3.22355 36 0 32.7764 0 28.8V7.2ZM7.2 3.6C5.21177 3.6 3.6 5.21177 3.6 7.2V28.8C3.6 30.7883 5.21177 32.4 7.2 32.4H28.8C30.7883 32.4 32.4 30.7883 32.4 28.8V7.2C32.4 5.21177 30.7883 3.6 28.8 3.6H7.2ZM18 12.6C15.0176 12.6 12.6 15.0176 12.6 18C12.6 20.9824 15.0176 23.4 18 23.4C20.9824 23.4 23.4 20.9824 23.4 18C23.4 15.0176 20.9824 12.6 18 12.6ZM9 18C9 13.0294 13.0294 9 18 9C22.9705 9 27 13.0294 27 18C27 22.9705 22.9705 27 18 27C13.0294 27 9 22.9705 9 18ZM27.9 10.8C29.3911 10.8 30.6 9.59117 30.6 8.1C30.6 6.60883 29.3911 5.4 27.9 5.4C26.4089 5.4 25.2 6.60883 25.2 8.1C25.2 9.59117 26.4089 10.8 27.9 10.8Z" fill="white"/>
</svg>
