<svg width="269" height="31" viewBox="0 0 269 31" fill="none" xmlns="http://www.w3.org/2000/svg">
<path d="M5.78467 14.644L17.4741 19.4463V23.5308L0.503906 16.0454V13.6016L17.4741 5.125V9.22656L5.78467 14.644Z" fill="#FEF19A"/>
<path d="M28.3604 27L37.6743 2.01465H42.3911L33.0771 27H28.3604Z" fill="#FEF19A"/>
<path d="M70.145 16.0454L53.1748 23.5308V19.4463L64.8643 14.644L53.1748 9.22656V5.125L70.145 13.6016V16.0454Z" fill="#FEF19A"/>
<path d="M110.221 14.5073C110.221 15.5783 110.095 16.6265 109.845 17.6519C109.605 18.6772 109.229 19.6058 108.717 20.4375C108.193 21.2692 107.555 21.9357 106.803 22.437C106.062 22.9383 105.179 23.189 104.154 23.189C103.083 23.189 102.24 22.8813 101.625 22.2661C101.009 21.6395 100.628 20.9331 100.479 20.147H100.309C99.887 21.0015 99.2661 21.7249 98.4458 22.3174C97.6369 22.8984 96.6115 23.189 95.3696 23.189C93.5809 23.189 92.208 22.5965 91.251 21.4116C90.2939 20.2153 89.8154 18.6374 89.8154 16.6777C89.8154 15.1738 90.1173 13.818 90.7212 12.6104C91.325 11.4255 92.1795 10.4969 93.2847 9.82471C94.4012 9.14111 95.7171 8.79932 97.2324 8.79932C98.2578 8.79932 99.2661 8.89046 100.257 9.07275C101.249 9.24365 102.023 9.43164 102.582 9.63672L102.24 16.7461C102.228 16.9626 102.217 17.1449 102.206 17.293C102.206 17.4297 102.206 17.5436 102.206 17.6348V18.0107C102.206 19.2412 102.416 20.0501 102.838 20.4375C103.271 20.8249 103.784 21.0186 104.376 21.0186C105.094 21.0186 105.703 20.7166 106.205 20.1128C106.706 19.509 107.088 18.7228 107.35 17.7544C107.623 16.7746 107.76 15.6808 107.76 14.4731C107.76 12.3198 107.327 10.4855 106.461 8.97021C105.595 7.45492 104.393 6.3042 102.855 5.51807C101.317 4.72054 99.5794 4.32178 97.6426 4.32178C94.988 4.32178 92.7435 4.86865 90.9092 5.9624C89.0749 7.05615 87.6849 8.56575 86.7393 10.4912C85.7936 12.4167 85.3208 14.6156 85.3208 17.0879C85.3208 20.5514 86.2323 23.2061 88.0552 25.0518C89.8781 26.8861 92.5042 27.8032 95.9336 27.8032C97.3577 27.8032 98.7135 27.6437 100.001 27.3247C101.3 27.0171 102.451 26.6753 103.453 26.2993V28.6748C102.451 29.0964 101.323 29.4382 100.069 29.7002C98.8275 29.9736 97.4489 30.1104 95.9336 30.1104C93.1878 30.1104 90.8294 29.5977 88.8584 28.5723C86.8988 27.5469 85.4006 26.0715 84.3638 24.146C83.327 22.2205 82.8086 19.9077 82.8086 17.2075C82.8086 15.0314 83.1504 13.0148 83.834 11.1577C84.5176 9.30062 85.4974 7.68848 86.7734 6.32129C88.0609 4.96549 89.6161 3.91162 91.439 3.15967C93.2733 2.39632 95.3411 2.01465 97.6426 2.01465C100.069 2.01465 102.228 2.51595 104.12 3.51855C106.011 4.52116 107.498 5.95671 108.58 7.8252C109.674 9.69368 110.221 11.9211 110.221 14.5073ZM92.5327 16.7461C92.5327 18.2614 92.8232 19.3551 93.4043 20.0273C93.9967 20.6882 94.8057 21.0186 95.8311 21.0186C97.1413 21.0186 98.0812 20.5286 98.6509 19.5488C99.2205 18.569 99.5509 17.2987 99.6421 15.7378L99.8472 11.3628C99.5509 11.2603 99.1693 11.1748 98.7021 11.1064C98.235 11.0381 97.7565 11.0039 97.2666 11.0039C96.1159 11.0039 95.193 11.283 94.498 11.8413C93.8031 12.3996 93.3018 13.1174 92.9941 13.9946C92.6865 14.8719 92.5327 15.7891 92.5327 16.7461Z" fill="#FEF19A"/>
<path d="M118.321 27H115.245V0.408203H118.321V27Z" fill="#FEF19A"/>
<path d="M125.824 1.21143C126.291 1.21143 126.707 1.37093 127.071 1.68994C127.436 1.99756 127.618 2.48747 127.618 3.15967C127.618 3.84326 127.436 4.34456 127.071 4.66357C126.707 4.97119 126.291 5.125 125.824 5.125C125.311 5.125 124.878 4.97119 124.525 4.66357C124.183 4.34456 124.012 3.84326 124.012 3.15967C124.012 2.48747 124.183 1.99756 124.525 1.68994C124.878 1.37093 125.311 1.21143 125.824 1.21143ZM127.345 8.23535V27H124.251V8.23535H127.345Z" fill="#FEF19A"/>
<path d="M145.494 21.8218C145.494 23.6447 144.816 25.0233 143.46 25.9575C142.116 26.8804 140.299 27.3418 138.009 27.3418C136.699 27.3418 135.571 27.2393 134.625 27.0342C133.691 26.8291 132.859 26.5386 132.13 26.1626V23.3599C132.882 23.7358 133.788 24.0833 134.847 24.4023C135.907 24.71 136.983 24.8638 138.077 24.8638C139.638 24.8638 140.766 24.6131 141.461 24.1118C142.167 23.6105 142.521 22.9383 142.521 22.0952C142.521 21.6167 142.395 21.1952 142.145 20.8306C141.86 20.4204 141.336 20.0216 140.572 19.6343C139.809 19.2355 138.92 18.8424 137.906 18.4551C137.302 18.2272 136.738 17.9937 136.214 17.7544C135.702 17.5151 135.229 17.2816 134.796 17.0537C133.93 16.5866 133.264 16.0283 132.796 15.3789C132.329 14.7295 132.096 13.8921 132.096 12.8667C132.096 11.2716 132.739 10.0469 134.027 9.19238C135.326 8.3265 137.029 7.89355 139.137 7.89355C140.276 7.89355 141.341 8.01318 142.333 8.25244C143.324 8.48031 144.252 8.78223 145.118 9.1582L144.059 11.6021C143.272 11.2716 142.446 10.9925 141.581 10.7646C140.715 10.5254 139.826 10.4058 138.915 10.4058C137.661 10.4058 136.699 10.6108 136.026 11.021C135.366 11.4312 135.035 11.9837 135.035 12.6787C135.035 13.2028 135.189 13.6471 135.497 14.0117C135.793 14.3649 136.294 14.7181 137 15.0713C137.718 15.4131 138.675 15.8062 139.872 16.2505C141.056 16.6948 142.07 17.1506 142.914 17.6177C143.757 18.0848 144.395 18.6545 144.828 19.3267C145.272 19.9875 145.494 20.8192 145.494 21.8218Z" fill="#FEF19A"/>
<path d="M157.149 7.92773C159.428 7.92773 161.114 8.42904 162.208 9.43164C163.313 10.4342 163.866 12.0293 163.866 14.2168V27H161.627L161.029 24.334H160.892C160.072 25.3594 159.206 26.117 158.294 26.6069C157.383 27.0968 156.147 27.3418 154.586 27.3418C152.888 27.3418 151.476 26.8975 150.348 26.0088C149.231 25.1087 148.673 23.7017 148.673 21.7876C148.673 19.9191 149.408 18.4779 150.877 17.4639C152.347 16.4499 154.609 15.8973 157.662 15.8062L160.858 15.6865V14.5757C160.858 13.0148 160.516 11.9325 159.833 11.3286C159.16 10.7134 158.203 10.4058 156.961 10.4058C155.982 10.4058 155.047 10.5539 154.159 10.8501C153.281 11.1349 152.455 11.4653 151.681 11.8413L150.741 9.53418C151.561 9.08984 152.529 8.71387 153.646 8.40625C154.763 8.08724 155.93 7.92773 157.149 7.92773ZM160.824 19.5146V17.8228L158.055 17.9424C155.72 18.0335 154.102 18.4038 153.202 19.0532C152.302 19.7026 151.852 20.6255 151.852 21.8218C151.852 22.87 152.171 23.639 152.809 24.1289C153.458 24.6188 154.284 24.8638 155.287 24.8638C156.847 24.8638 158.158 24.4251 159.217 23.5479C160.288 22.6706 160.824 21.3262 160.824 19.5146Z" fill="#FEF19A"/>
<path d="M178.409 7.89355C178.762 7.89355 179.133 7.91064 179.52 7.94482C179.919 7.979 180.283 8.03027 180.614 8.09863L180.221 10.9355C179.924 10.8672 179.588 10.8102 179.212 10.7646C178.836 10.7191 178.5 10.6963 178.204 10.6963C177.236 10.6963 176.336 10.9583 175.504 11.4824C174.661 12.0065 173.989 12.7414 173.487 13.687C172.986 14.6326 172.735 15.7321 172.735 16.9854V27H169.659V8.23535H172.171L172.53 11.6704H172.667C173.248 10.645 174.023 9.76204 174.991 9.02148C175.96 8.26953 177.099 7.89355 178.409 7.89355Z" fill="#FEF19A"/>
<path d="M190.509 7.92773C192.787 7.92773 194.474 8.42904 195.567 9.43164C196.673 10.4342 197.225 12.0293 197.225 14.2168V27H194.986L194.388 24.334H194.251C193.431 25.3594 192.565 26.117 191.654 26.6069C190.742 27.0968 189.506 27.3418 187.945 27.3418C186.248 27.3418 184.835 26.8975 183.707 26.0088C182.59 25.1087 182.032 23.7017 182.032 21.7876C182.032 19.9191 182.767 18.4779 184.237 17.4639C185.707 16.4499 187.968 15.8973 191.021 15.8062L194.217 15.6865V14.5757C194.217 13.0148 193.875 11.9325 193.192 11.3286C192.52 10.7134 191.563 10.4058 190.321 10.4058C189.341 10.4058 188.407 10.5539 187.518 10.8501C186.641 11.1349 185.815 11.4653 185.04 11.8413L184.1 9.53418C184.92 9.08984 185.889 8.71387 187.005 8.40625C188.122 8.08724 189.29 7.92773 190.509 7.92773ZM194.183 19.5146V17.8228L191.415 17.9424C189.079 18.0335 187.461 18.4038 186.561 19.0532C185.661 19.7026 185.211 20.6255 185.211 21.8218C185.211 22.87 185.53 23.639 186.168 24.1289C186.817 24.6188 187.643 24.8638 188.646 24.8638C190.207 24.8638 191.517 24.4251 192.577 23.5479C193.648 22.6706 194.183 21.3262 194.183 19.5146Z" fill="#FEF19A"/>
<path d="M214.862 8.23535V10.5425L204.933 24.6245H215.118V27H201.395V24.9663L211.478 10.6279H201.993V8.23535H214.862Z" fill="#FEF19A"/>
<path d="M232.054 18.0107V8.23535H235.13V27H232.601L232.157 24.522H232.02C231.405 25.5018 230.562 26.2196 229.491 26.6753C228.42 27.1196 227.275 27.3418 226.056 27.3418C223.8 27.3418 222.097 26.8006 220.946 25.7183C219.806 24.6359 219.237 22.9041 219.237 20.5229V8.23535H222.347V20.3179C222.347 23.3029 223.737 24.7954 226.517 24.7954C228.591 24.7954 230.032 24.2144 230.841 23.0522C231.65 21.8787 232.054 20.1982 232.054 18.0107Z" fill="#FEF19A"/>
<path d="M261.671 7.89355C263.801 7.89355 265.391 8.44043 266.439 9.53418C267.487 10.6279 268.011 12.3768 268.011 14.7808V27H264.969V14.9175C264.969 11.9552 263.699 10.4741 261.158 10.4741C259.335 10.4741 258.031 11.0039 257.245 12.0635C256.47 13.1117 256.083 14.6383 256.083 16.6436V27H253.023V14.9175C253.023 11.9552 251.742 10.4741 249.178 10.4741C247.287 10.4741 245.977 11.0609 245.248 12.2344C244.53 13.3965 244.171 15.077 244.171 17.2759V27H241.095V8.23535H243.573L244.034 10.7988H244.205C244.786 9.81901 245.572 9.08984 246.563 8.61133C247.566 8.13281 248.626 7.89355 249.742 7.89355C252.682 7.89355 254.596 8.94173 255.484 11.0381H255.655C256.282 9.96712 257.131 9.17529 258.202 8.6626C259.284 8.1499 260.44 7.89355 261.671 7.89355Z" fill="#FEF19A"/>
</svg>
