<svg>
  <symbol id="email" viewBox="0 0 36 36" xmlns="http://www.w3.org/2000/svg">
    <path d="M33.12 6.47998H2.88C1.29596 6.47998 0 7.77602 0 9.35998V26.64C0 28.2239 1.29596 29.52 2.88 29.52H33.12C34.704 29.52 36 28.2239 36 26.64V9.35998C36 7.77602 34.704 6.47998 33.12 6.47998ZM32.4 7.92006L18 20.4481L3.59996 7.92006H32.4ZM1.87196 27.648C1.58396 27.36 1.44 27.072 1.44 26.64V9.35998C1.44 8.92802 1.58404 8.64002 1.87196 8.35194L12.96 18L1.87196 27.648ZM3.59996 28.0801L14.112 19.008L18 22.32L21.888 19.008L32.4 28.08H3.59996V28.0801ZM34.56 26.64C34.56 27.0719 34.416 27.3599 34.128 27.648L23.04 18L34.128 8.35194C34.416 8.63994 34.56 8.92794 34.56 9.35998V26.64Z"/>
  </symbol>

  <symbol id="telephone" viewBox="0 0 42 42" xmlns="http://www.w3.org/2000/svg">
    <path d="M34.1168 27.5215C32.9191 26.291 29.5148 23.9859 27.2836 23.9859C26.7668 23.9859 26.3156 24.1008 25.9465 24.3386C24.8555 25.0359 23.9859 25.5773 23.5676 25.5773C23.3379 25.5773 23.0918 25.3722 22.5504 24.9047L22.4601 24.8226C20.959 23.5183 20.639 23.182 20.0566 22.575L19.909 22.4191C19.8023 22.3125 19.7121 22.214 19.6219 22.1238C19.1133 21.5988 18.7441 21.2215 17.4398 19.7449L17.3824 19.6793C16.759 18.9738 16.3488 18.5144 16.3242 18.1781C16.2996 17.85 16.5867 17.3168 17.3168 16.3242C18.2027 15.1265 18.2355 13.65 17.4234 11.9355C16.7754 10.582 15.7172 9.28591 14.782 8.14568L14.7 8.04724C13.8961 7.06287 12.9609 6.57068 11.9191 6.57068C10.7625 6.57068 9.80272 7.19412 9.29413 7.52224C9.25311 7.54685 9.2121 7.57966 9.17108 7.60427C8.03085 8.32615 7.20233 9.31873 6.89061 10.3277C6.42303 11.8453 6.11131 13.814 8.35077 17.9074C10.2867 21.4511 12.0422 23.8301 14.8312 26.6929C17.4562 29.3836 18.6211 30.2531 21.2297 32.1398C24.1336 34.2398 26.9226 35.4457 28.875 35.4457C30.6879 35.4457 32.1152 35.4457 34.1496 32.9929C36.2824 30.4172 35.3965 28.8422 34.1168 27.5215ZM33.1734 32.107C31.5328 34.0922 30.5894 34.0922 28.8832 34.0922C27.218 34.0922 24.634 32.9437 21.9762 31.0324C19.4332 29.1949 18.3012 28.35 15.75 25.7332C13.0512 22.9687 11.3531 20.6636 9.4828 17.2429C7.50585 13.6254 7.72733 12.0422 8.12928 10.7379C8.34256 10.0406 8.98241 9.29412 9.85194 8.75271C9.89295 8.7281 9.93397 8.69529 9.98319 8.67068C10.418 8.39177 11.1398 7.92419 11.9273 7.92419C12.5836 7.92419 13.166 8.25232 13.7238 8.93318L13.8058 9.03162C15.8976 11.591 17.5301 13.8551 16.2996 15.5285C15.4301 16.7015 14.9707 17.4972 15.0445 18.3176C15.1101 19.1133 15.6433 19.7121 16.4473 20.6144L16.5047 20.6801C17.8254 22.173 18.2027 22.5668 18.7277 23.1C18.818 23.1902 18.9082 23.2886 19.0148 23.3953L19.1625 23.5511C19.7695 24.1828 20.1058 24.5273 21.648 25.8808L21.7383 25.9629C22.3945 26.5371 22.8785 26.9554 23.584 26.9554C24.314 26.9554 25.118 26.4961 26.6437 25.5199C26.7996 25.4215 27.0211 25.364 27.3 25.364C29.0801 25.364 32.148 27.3984 33.2226 28.5058C34.207 29.5066 34.6992 30.2613 33.1734 32.107Z"/>
  </symbol>

  <symbol id="telegram" viewBox="0 0 38 38" xmlns="http://www.w3.org/2000/svg">
    <path d="M34.7467 4.37738C34.0511 3.80055 33.0951 3.65211 32.2573 3.99083L3.88875 15.4437C2.64085 15.9573 2.04565 17.3854 2.55929 18.6332C2.82495 19.2785 3.35376 19.7794 4.01245 20.0097L10.1324 22.1373L13.4491 33.1031C13.4557 33.1255 13.4762 33.1391 13.4848 33.1605C13.5191 33.248 13.5693 33.3285 13.6326 33.3979C13.6561 33.4258 13.6819 33.452 13.7093 33.4762C13.7919 33.5448 13.8879 33.5955 13.9911 33.6251C14.0069 33.6297 14.0174 33.6437 14.0334 33.6474L14.0427 33.647L14.0473 33.6489C14.1002 33.6607 14.1541 33.6664 14.2081 33.666C14.2788 33.6634 14.3489 33.6513 14.4161 33.6297C14.4292 33.6261 14.4423 33.6271 14.4551 33.6229C14.57 33.5824 14.6738 33.5158 14.7583 33.4282C14.7682 33.4184 14.7832 33.4166 14.7926 33.4062L19.5643 28.1413L26.5254 33.5314C26.9484 33.8621 27.4698 34.0418 28.0067 34.0417C29.1679 34.0415 30.1702 33.2281 30.4095 32.0919L35.5755 6.73074C35.7545 5.85345 35.4359 4.94891 34.7467 4.37738ZM15.1808 24.217L14.0611 29.6585L11.7259 21.9353L23.3078 15.9044L15.3957 23.8165C15.2864 23.926 15.2116 24.0653 15.1808 24.217ZM28.8587 31.7734C28.798 32.0648 28.5901 32.3038 28.3098 32.4042C28.0359 32.5096 27.7267 32.4626 27.4965 32.2805L19.954 26.4405C19.6275 26.1876 19.1614 26.2287 18.884 26.5348L15.5659 30.1957L16.6838 24.769L28.0655 13.3857C28.3748 13.0769 28.3753 12.5759 28.0666 12.2667C27.8224 12.0219 27.4475 11.9641 27.1409 12.124L10.7322 20.6687L4.53043 18.513C4.19239 18.4017 3.96248 18.0879 3.95833 17.7321C3.942 17.3738 4.15412 17.0443 4.48714 16.9111L32.8511 5.45974C33.1474 5.33401 33.4893 5.38668 33.734 5.59581C33.9775 5.79237 34.0894 6.10945 34.0231 6.41531L28.8587 31.7734Z"/>
  </symbol>

  <symbol id="instagram" viewBox="0 0 33 33" xmlns="http://www.w3.org/2000/svg">
    <g clip-path="url(#clip0_51305_40)">
    <path d="M32.5488 16.5644C32.5488 18.8074 32.5037 21.0568 32.5617 23.2998C32.6584 27.2701 30.1641 30.3381 26.9865 31.7045C25.7103 32.2523 24.3697 32.5424 22.984 32.5424C18.6463 32.5488 14.3021 32.6068 9.96445 32.523C6.69667 32.4586 4.00898 31.0922 2.08183 28.398C1.06992 26.9801 0.586517 25.3687 0.586517 23.6221C0.586517 19.0008 0.586517 14.3859 0.586517 9.76464C0.586517 5.99414 2.42343 3.358 5.68476 1.64355C7.10273 0.902339 8.64316 0.586519 10.248 0.580074C14.4568 0.580074 18.6721 0.554292 22.8809 0.592964C26.1486 0.618746 28.875 1.86914 30.8859 4.49882C32.0074 5.96836 32.5488 7.65703 32.5488 9.51328C32.5488 11.8594 32.5488 14.2119 32.5488 16.5644ZM2.96484 16.5644C2.96484 18.9299 2.96484 21.2889 2.96484 23.6543C2.96484 24.7113 3.20976 25.7039 3.75761 26.5998C5.19492 28.9523 7.36699 30.0996 10.0611 30.1447C14.3859 30.2092 18.7172 30.1705 23.0484 30.1576C24.1119 30.1576 25.1432 29.9385 26.1035 29.4809C28.7203 28.2305 30.1834 26.2389 30.1705 23.2482C30.1447 18.6721 30.1641 14.0959 30.1641 9.51972C30.1641 8.22421 29.7967 7.03828 29.0297 5.99414C27.5473 3.98964 25.4977 3.00351 23.0484 2.97773C18.7301 2.92617 14.4117 2.95839 10.0934 2.96484C9.17167 2.96484 8.28222 3.15175 7.41855 3.47402C5.04667 4.35703 2.84238 6.59355 2.9455 9.8871C3.02285 12.1172 2.96484 14.3408 2.96484 16.5644Z"/>
    <path d="M16.6031 23.3965C12.4459 23.3965 9.09435 20.0836 9.0879 15.9586C9.08145 11.8981 12.4588 8.57227 16.5902 8.57227C20.7346 8.56583 24.099 11.8852 24.1055 15.9779C24.1055 20.0643 20.7475 23.39 16.6031 23.3965ZM16.6031 21.0117C19.4326 21.0117 21.7272 18.7494 21.7207 15.965C21.7143 13.2065 19.4197 10.9506 16.6031 10.9506C13.7736 10.9506 11.4662 13.2 11.4662 15.9779C11.4727 18.7623 13.7736 21.0182 16.6031 21.0117Z" />
    <path d="M24.9756 6.31641C25.8457 6.31641 26.5547 7.05762 26.5547 7.96641C26.5482 8.8752 25.8328 9.60996 24.9627 9.60352C24.1055 9.59707 23.4029 8.8623 23.4029 7.97285C23.3965 7.06406 24.1055 6.31641 24.9756 6.31641Z" />
    </g>
    <defs>
    <clipPath id="clip0_51305_40">
    <rect />
    </clipPath>
    </defs>
  </symbol>
  <symbol id="git" xmlns="http://www.w3.org/2000/svg"  viewBox="0 0 50 50">
    <path d="M 25 2 C 12.311335 2 2 12.311335 2 25 C 2 37.688665 12.311335 48 25 48 C 37.688665 48 48 37.688665 48 25 C 48 12.311335 37.688665 2 25 2 z M 25 4 C 36.607335 4 46 13.392665 46 25 C 46 25.071371 45.994849 25.141688 45.994141 25.212891 C 45.354527 25.153853 44.615508 25.097776 43.675781 25.064453 C 42.347063 25.017336 40.672259 25.030987 38.773438 25.125 C 38.843852 24.634651 38.893205 24.137377 38.894531 23.626953 C 38.991361 21.754332 38.362521 20.002464 37.339844 18.455078 C 37.586913 17.601352 37.876747 16.515218 37.949219 15.283203 C 38.031819 13.878925 37.910599 12.321765 36.783203 11.269531 L 36.494141 11 L 36.099609 11 C 33.416539 11 31.580023 12.12321 30.457031 13.013672 C 28.835529 12.386022 27.01222 12 25 12 C 22.976367 12 21.135525 12.391416 19.447266 13.017578 C 18.324911 12.126691 16.486785 11 13.800781 11 L 13.408203 11 L 13.119141 11.267578 C 12.020956 12.287321 11.919778 13.801759 11.988281 15.199219 C 12.048691 16.431506 12.321732 17.552142 12.564453 18.447266 C 11.524489 20.02486 10.900391 21.822018 10.900391 23.599609 C 10.900391 24.111237 10.947969 24.610071 11.017578 25.101562 C 9.2118173 25.017808 7.6020996 25.001668 6.3242188 25.046875 C 5.3845143 25.080118 4.6454422 25.135713 4.0058594 25.195312 C 4.0052628 25.129972 4 25.065482 4 25 C 4 13.392665 13.392665 4 25 4 z M 14.396484 13.130859 C 16.414067 13.322043 17.931995 14.222972 18.634766 14.847656 L 19.103516 15.261719 L 19.681641 15.025391 C 21.263092 14.374205 23.026984 14 25 14 C 26.973016 14 28.737393 14.376076 30.199219 15.015625 L 30.785156 15.273438 L 31.263672 14.847656 C 31.966683 14.222758 33.487184 13.321554 35.505859 13.130859 C 35.774256 13.575841 36.007486 14.208668 35.951172 15.166016 C 35.883772 16.311737 35.577304 17.559658 35.345703 18.300781 L 35.195312 18.783203 L 35.494141 19.191406 C 36.483616 20.540691 36.988121 22.000937 36.902344 23.544922 L 36.900391 23.572266 L 36.900391 23.599609 C 36.900391 26.095064 36.00178 28.092339 34.087891 29.572266 C 32.174048 31.052199 29.152663 32 24.900391 32 C 20.648118 32 17.624827 31.052192 15.710938 29.572266 C 13.797047 28.092339 12.900391 26.095064 12.900391 23.599609 C 12.900391 22.134903 13.429308 20.523599 14.40625 19.191406 L 14.699219 18.792969 L 14.558594 18.318359 C 14.326866 17.530484 14.042825 16.254103 13.986328 15.101562 C 13.939338 14.14294 14.166221 13.537027 14.396484 13.130859 z M 8.8847656 26.021484 C 9.5914575 26.03051 10.40146 26.068656 11.212891 26.109375 C 11.290419 26.421172 11.378822 26.727898 11.486328 27.027344 C 8.178972 27.097092 5.7047309 27.429674 4.1796875 27.714844 C 4.1152068 27.214494 4.0638483 26.710021 4.0351562 26.199219 C 5.1622058 26.092262 6.7509972 25.994233 8.8847656 26.021484 z M 41.115234 26.037109 C 43.247527 26.010033 44.835728 26.108156 45.962891 26.214844 C 45.934234 26.718328 45.883749 27.215664 45.820312 27.708984 C 44.24077 27.41921 41.699674 27.086688 38.306641 27.033203 C 38.411945 26.739677 38.499627 26.438219 38.576172 26.132812 C 39.471291 26.084833 40.344564 26.046896 41.115234 26.037109 z M 11.912109 28.019531 C 12.508849 29.215327 13.361516 30.283019 14.488281 31.154297 C 16.028825 32.345531 18.031623 33.177838 20.476562 33.623047 C 20.156699 33.951698 19.86578 34.312595 19.607422 34.693359 L 19.546875 34.640625 C 19.552375 34.634325 19.04975 34.885878 18.298828 34.953125 C 17.547906 35.020374 16.621615 35 15.800781 35 C 14.575781 35 14.03621 34.42121 13.173828 33.367188 C 12.696283 32.72356 12.114101 32.202331 11.548828 31.806641 C 10.970021 31.401475 10.476259 31.115509 9.8652344 31.013672 L 9.7832031 31 L 9.6992188 31 C 9.2325521 31 8.7809835 31.03379 8.359375 31.515625 C 8.1485707 31.756544 8.003277 32.202561 8.0976562 32.580078 C 8.1920352 32.957595 8.4308563 33.189581 8.6445312 33.332031 C 10.011254 34.24318 10.252795 36.046511 11.109375 37.650391 C 11.909298 39.244315 13.635662 40 15.400391 40 L 18 40 L 18 44.802734 C 10.967811 42.320535 5.6646795 36.204613 4.3320312 28.703125 C 5.8629338 28.414776 8.4265387 28.068108 11.912109 28.019531 z M 37.882812 28.027344 C 41.445538 28.05784 44.08105 28.404061 45.669922 28.697266 C 44.339047 36.201504 39.034072 42.31987 32 44.802734 L 32 39.599609 C 32 38.015041 31.479642 36.267712 30.574219 34.810547 C 30.299322 34.368135 29.975945 33.949736 29.615234 33.574219 C 31.930453 33.11684 33.832364 32.298821 35.3125 31.154297 C 36.436824 30.284907 37.287588 29.220424 37.882812 28.027344 z M 23.699219 34.099609 L 26.5 34.099609 C 27.312821 34.099609 28.180423 34.7474 28.875 35.865234 C 29.569577 36.983069 30 38.484177 30 39.599609 L 30 45.398438 C 28.397408 45.789234 26.72379 46 25 46 C 23.27621 46 21.602592 45.789234 20 45.398438 L 20 39.599609 C 20 38.508869 20.467828 37.011307 21.208984 35.888672 C 21.950141 34.766037 22.886398 34.099609 23.699219 34.099609 z M 12.308594 35.28125 C 13.174368 36.179258 14.222525 37 15.800781 37 C 16.579948 37 17.552484 37.028073 18.476562 36.945312 C 18.479848 36.945018 18.483042 36.943654 18.486328 36.943359 C 18.36458 37.293361 18.273744 37.645529 18.197266 38 L 15.400391 38 C 14.167057 38 13.29577 37.55443 12.894531 36.751953 L 12.886719 36.738281 L 12.880859 36.726562 C 12.716457 36.421191 12.500645 35.81059 12.308594 35.28125 z"/>
  </symbol>
</svg>