<svg width="36" height="36" viewBox="0 0 36 36" fill="none" xmlns="http://www.w3.org/2000/svg">
<path d="M34.885 0.855504C34.4433 0.435869 33.9056 0.157197 33.3301 0.0496822C32.7547 -0.0578329 32.1635 0.00990805 31.6205 0.245566L2.0339 13.0306C1.38926 13.3092 0.843952 13.8098 0.479576 14.4577C0.1152 15.1055 -0.0486511 15.8658 0.0125418 16.6246C0.0737346 17.3834 0.356681 18.1001 0.81904 18.6673C1.2814 19.2345 1.89831 19.6217 2.57746 19.7711L9.57717 21.3111V31.0578C9.57663 31.7556 9.76435 32.4379 10.1166 33.0182C10.4688 33.5986 10.9697 34.0509 11.5557 34.3179C12.1418 34.5849 12.7868 34.6546 13.4089 34.5182C14.031 34.3818 14.6024 34.0453 15.0506 33.5515L18.7841 29.4449L24.6449 35.118C25.2259 35.6853 25.9756 35.9991 26.7525 36C27.0902 35.9996 27.4258 35.9411 27.7471 35.8266C28.277 35.6417 28.7535 35.3073 29.1292 34.8566C29.5049 34.4059 29.7666 33.8547 29.8883 33.258L35.9181 4.31588C36.0493 3.69031 36.0224 3.03717 35.8403 2.42721C35.6582 1.81724 35.3279 1.27372 34.885 0.855504ZM21.1056 9.33614L11.055 17.3204L5.47153 16.092L21.1056 9.33614ZM13.4247 29.3549V24.2571L15.8898 26.6434L13.4247 29.3549ZM26.3785 31.1584L14.5814 19.7394L31.569 6.24445L26.3785 31.1584Z" fill="white"/>
</svg>
