<svg width="36" height="36" viewBox="0 0 36 36" fill="none" xmlns="http://www.w3.org/2000/svg">
<path fill-rule="evenodd" clip-rule="evenodd" d="M26.2473 21.5733C25.7994 21.3501 23.5975 20.2721 23.1869 20.123C22.7765 19.9743 22.4779 19.9001 22.1792 20.3462C21.8806 20.7923 21.0223 21.7963 20.7611 22.0939C20.4999 22.3912 20.2385 22.4286 19.7907 22.2054C19.3428 21.9824 17.8996 21.5117 16.1891 19.9931C14.8576 18.8111 13.9587 17.3515 13.6975 16.9053C13.4362 16.459 13.6695 16.2179 13.8938 15.9956C14.0953 15.7959 14.3418 15.4749 14.5657 15.2146C14.7896 14.9544 14.8642 14.7684 15.0135 14.4711C15.1628 14.1735 15.0882 13.9133 14.9761 13.6902C14.8642 13.4671 13.9685 11.2731 13.5953 10.3805C13.2317 9.51144 12.8625 9.62916 12.5876 9.61536C12.3266 9.60248 12.0277 9.59971 11.7292 9.59971C11.4306 9.59971 10.9454 9.71127 10.5348 10.1574C10.1243 10.6036 8.96728 11.6821 8.96728 13.8759C8.96728 16.07 10.5721 18.1895 10.7961 18.4869C11.0201 18.7845 13.9542 23.2866 18.4472 25.2174C19.5156 25.6767 20.3499 25.9509 21.0004 26.1562C22.0732 26.4955 23.0496 26.4477 23.8214 26.3328C24.6819 26.205 26.4713 25.2546 26.8445 24.2136C27.2176 23.1722 27.2176 22.2798 27.1057 22.0939C26.9937 21.9079 26.6951 21.7964 26.2473 21.5733ZM18.0752 32.6779H18.0693C15.3958 32.6769 12.7739 31.9621 10.4864 30.6112L9.94237 30.2898L4.3037 31.7619L5.80871 26.2905L5.45458 25.7295C3.96322 23.3688 3.17551 20.6404 3.17667 17.8387C3.17996 9.66385 9.8634 3.0129 18.0812 3.0129C22.0606 3.01431 25.8012 4.55857 28.6142 7.36125C31.427 10.1637 32.975 13.889 32.9735 17.8508C32.9702 26.0264 26.2869 32.6779 18.0752 32.6779ZM30.7549 5.2316C27.3708 1.8597 22.8702 0.00192456 18.0752 0C8.19524 0 0.154189 8.00207 0.150193 17.8377C0.148903 20.9819 0.974254 24.0505 2.54283 26.7559L0 36L9.5021 33.5193C12.1203 34.9406 15.068 35.6896 18.068 35.6905H18.0754C27.9542 35.6905 35.9959 27.6878 36 17.852C36.0018 13.0854 34.139 8.60343 30.7549 5.2316Z" fill="white"/>
</svg>
